<?xml version="1.0" encoding="iso-8859-1"?>
<!-- Generator: Adobe Illustrator 19.0.0, SVG Export Plug-In . SVG Version: 6.00 Build 0)  -->
<svg version="1.1" id="Capa_1" xmlns="http://www.w3.org/2000/svg" xmlns:xlink="http://www.w3.org/1999/xlink" x="0px" y="0px"
	 viewBox="0 0 512 512" style="enable-background:new 0 0 512 512;" xml:space="preserve">
<circle style="fill:#FFC855;" cx="256" cy="256" r="256"/>
<path style="fill:#F29F42;" d="M512,256c0-11.678-0.798-23.168-2.312-34.431L378.279,90.161l2.943,17.443L344,70.381l-12.222,49.726
	L293,81.329l-12.667,60.693L230.78,92.469l-95.03,114.51l48.595,48.595L135.75,282l51.838,51.838L155.765,435l75.836,75.836
	C239.633,511.596,247.769,512,256,512C397.385,512,512,397.385,512,256z"/>
<path style="fill:#FFFFFF;" d="M181.25,69L181.25,69c-35.346,0-64,28.654-64,64v29c0,29.003,19.298,53.486,45.75,61.345V272h36.5
	v-48.655c26.452-7.858,45.75-32.342,45.75-61.345v-29C245.25,97.654,216.596,69,181.25,69z"/>
<path style="fill:#E0E0E0;" d="M181.548,69.007V272H199.5v-48.655c26.452-7.858,45.75-32.342,45.75-61.345v-29
	C245.25,97.753,216.756,69.168,181.548,69.007z"/>
<path style="fill:#E15050;" d="M181.25,445L181.25,445c-20.711,0-37.5-16.789-37.5-37.5v-143h75v143
	C218.75,428.211,201.961,445,181.25,445z"/>
<g>
	<path style="fill:#A13939;" d="M181.548,264.5v180.493c20.573-0.161,37.202-16.882,37.202-37.493v-143L181.548,264.5L181.548,264.5
		z"/>
	<rect x="135.75" y="259" style="fill:#A13939;" width="91" height="23"/>
</g>
<rect x="181.55" y="259" style="fill:#822727;" width="45.2" height="23"/>
<path style="fill:#FFFFFF;" d="M368.5,81.329V166H344V70.381c-4.276-0.9-8.706-1.381-13.25-1.381l0,0
	c-4.544,0-8.974,0.481-13.25,1.381V166H293V81.329c-15.91,11.643-26.25,30.445-26.25,51.671v29c0,29.003,19.298,53.486,45.75,61.345
	V272H349v-48.655c26.452-7.858,45.75-32.342,45.75-61.345v-29C394.75,111.774,384.41,92.972,368.5,81.329z"/>
<path style="fill:#E0E0E0;" d="M368.5,81.329V166H344V70.381c-4.276-0.9-8.706-1.381-13.25-1.381l0,0
	c-0.132,0-0.261,0.01-0.393,0.01V272H349v-48.655c26.452-7.858,45.75-32.342,45.75-61.345v-29
	C394.75,111.774,384.41,92.972,368.5,81.329z"/>
<path style="fill:#E15050;" d="M330.75,445L330.75,445c-20.711,0-37.5-16.789-37.5-37.5v-143h75v143
	C368.25,428.211,351.461,445,330.75,445z"/>
<g>
	<path style="fill:#A13939;" d="M330.357,264.5v180.49c0.131,0.001,0.261,0.01,0.393,0.01l0,0c20.711,0,37.5-16.789,37.5-37.5v-143
		H330.357z"/>
	<rect x="285.25" y="259" style="fill:#A13939;" width="91" height="23"/>
</g>
<rect x="330.36" y="259" style="fill:#822727;" width="45.893" height="23"/>
<g>
</g>
<g>
</g>
<g>
</g>
<g>
</g>
<g>
</g>
<g>
</g>
<g>
</g>
<g>
</g>
<g>
</g>
<g>
</g>
<g>
</g>
<g>
</g>
<g>
</g>
<g>
</g>
<g>
</g>
</svg>
